<svg viewBox="0 0 48 48" fill="none" xmlns="http://www.w3.org/2000/svg">
  <!-- Main Container -->
  <rect x="4" y="4" width="40" height="40" rx="8" fill="url(#bgGradient)" stroke="url(#borderGradient)" stroke-width="1.5"/>
  
  <!-- Stylized "A" - Main Element -->
  <path d="M16 36L24 12L32 36M20 28H28" stroke="url(#textGradient)" stroke-width="2.5" stroke-linecap="round" stroke-linejoin="round"/>
  
  <!-- Cloud Elements -->
  <path d="M12 22C12 19.7909 13.7909 18 16 18C16.5 18 16.9 18.1 17.3 18.3C17.8 16.6 19.3 15.5 21 15.5C23.2 15.5 25 17.3 25 19.5C25 19.8 25 20.1 24.9 20.4C25.5 20.2 26.1 20.1 26.8 20.1C29.1 20.1 31 22 31 24.3C31 26.6 29.1 28.5 26.8 28.5H16C13.8 28.5 12 26.7 12 24.5V22Z" fill="url(#cloudGradient)" opacity="0.4"/>
  
  <!-- Circuit/Connection Lines -->
  <path d="M18 16L30 16" stroke="#10B981" stroke-width="1" opacity="0.6" stroke-linecap="round"/>
  <path d="M18 32L30 32" stroke="#3B82F6" stroke-width="1" opacity="0.6" stroke-linecap="round"/>
  <path d="M16 18L16 30" stroke="#8B5CF6" stroke-width="1" opacity="0.6" stroke-linecap="round"/>
  <path d="M32 18L32 30" stroke="#10B981" stroke-width="1" opacity="0.6" stroke-linecap="round"/>
  
  <!-- Corner Dots for Tech Feel -->
  <circle cx="18" cy="18" r="1" fill="#10B981" opacity="0.8"/>
  <circle cx="30" cy="18" r="1" fill="#3B82F6" opacity="0.8"/>
  <circle cx="18" cy="30" r="1" fill="#8B5CF6" opacity="0.8"/>
  <circle cx="30" cy="30" r="1" fill="#10B981" opacity="0.8"/>
  
  <!-- DevOps/CI-CD Elements -->
  <path d="M36 14L40 18L36 22" stroke="#10B981" stroke-width="1.5" stroke-linecap="round" opacity="0.7"/>
  <path d="M36 18L40 22L36 26" stroke="#3B82F6" stroke-width="1.5" stroke-linecap="round" opacity="0.5"/>
  
  <!-- Gradients -->
  <defs>
    <linearGradient id="bgGradient" x1="0%" y1="0%" x2="100%" y2="100%">
      <stop offset="0%" stop-color="#FFFFFF"/>
      <stop offset="100%" stop-color="#F8FAFC"/>
    </linearGradient>
    <linearGradient id="borderGradient" x1="0%" y1="0%" x2="100%" y2="100%">
      <stop offset="0%" stop-color="#10B981"/>
      <stop offset="50%" stop-color="#3B82F6"/>
      <stop offset="100%" stop-color="#8B5CF6"/>
    </linearGradient>
    <linearGradient id="textGradient" x1="0%" y1="0%" x2="100%" y2="100%">
      <stop offset="0%" stop-color="#1E293B"/>
      <stop offset="100%" stop-color="#334155"/>
    </linearGradient>
    <linearGradient id="cloudGradient" x1="0%" y1="0%" x2="100%" y2="100%">
      <stop offset="0%" stop-color="#10B981"/>
      <stop offset="100%" stop-color="#3B82F6"/>
    </linearGradient>
  </defs>
</svg> 