<svg viewBox="0 0 32 32" fill="none" xmlns="http://www.w3.org/2000/svg">
  <!-- Main Container -->
  <rect x="2" y="2" width="28" height="28" rx="6" fill="url(#bgGradient)" stroke="url(#borderGradient)" stroke-width="1"/>
  
  <!-- Stylized "A" - Main Element -->
  <path d="M10 24L16 8L22 24M12 18H20" stroke="url(#textGradient)" stroke-width="2" stroke-linecap="round" stroke-linejoin="round"/>
  
  <!-- Cloud Elements -->
  <path d="M8 14C8 12.8954 8.89543 12 10 12C10.5 12 10.9 12.1 11.3 12.3C11.8 10.6 13.3 9.5 15 9.5C17.2 9.5 19 11.3 19 13.5C19 13.8 19 14.1 18.9 14.4C19.5 14.2 20.1 14.1 20.8 14.1C23.1 14.1 25 16 25 18.3C25 20.6 23.1 22.5 20.8 22.5H10C7.8 22.5 6 20.7 6 18.5V14Z" fill="url(#cloudGradient)" opacity="0.4"/>
  
  <!-- Corner Dots for Tech Feel -->
  <circle cx="12" cy="12" r="0.8" fill="#10B981" opacity="0.8"/>
  <circle cx="20" cy="12" r="0.8" fill="#3B82F6" opacity="0.8"/>
  <circle cx="12" cy="20" r="0.8" fill="#8B5CF6" opacity="0.8"/>
  <circle cx="20" cy="20" r="0.8" fill="#10B981" opacity="0.8"/>
  
  <!-- Gradients -->
  <defs>
    <linearGradient id="bgGradient" x1="0%" y1="0%" x2="100%" y2="100%">
      <stop offset="0%" stop-color="#FFFFFF"/>
      <stop offset="100%" stop-color="#F8FAFC"/>
    </linearGradient>
    <linearGradient id="borderGradient" x1="0%" y1="0%" x2="100%" y2="100%">
      <stop offset="0%" stop-color="#10B981"/>
      <stop offset="50%" stop-color="#3B82F6"/>
      <stop offset="100%" stop-color="#8B5CF6"/>
    </linearGradient>
    <linearGradient id="textGradient" x1="0%" y1="0%" x2="100%" y2="100%">
      <stop offset="0%" stop-color="#1E293B"/>
      <stop offset="100%" stop-color="#334155"/>
    </linearGradient>
    <linearGradient id="cloudGradient" x1="0%" y1="0%" x2="100%" y2="100%">
      <stop offset="0%" stop-color="#10B981"/>
      <stop offset="100%" stop-color="#3B82F6"/>
    </linearGradient>
  </defs>
</svg> 